<svg width="64" height="64" viewBox="0 0 64 64" fill="none" xmlns="http://www.w3.org/2000/svg">
  <!-- Dark Background (Optional: Remove 'fill' for transparent) -->
  <rect width="64" height="64" rx="12" fill="#0f172a"/>
  
  <!-- Hexagon Outline -->
  <path d="M32 8L54 20V44L32 56L10 44V20L32 8Z" stroke="#3b82f6" stroke-width="2" stroke-linecap="round" stroke-linejoin="round"/>
  
  <!-- Stylized 'C' Circuit -->
  <path d="M40 22C38 20 35 19 32 19C24.8203 19 19 24.8203 19 32C19 39.1797 24.8203 45 32 45C35 45 38 44 40 42" stroke="white" stroke-width="2.5" stroke-linecap="round"/>
  
  <!-- Center Chip -->
  <rect x="29" y="29" width="6" height="6" rx="1" fill="#3b82f6"/>
  
  <!-- Chip Traces -->
  <path d="M32 29V26M32 35V38M29 32H26M35 32H38" stroke="#3b82f6" stroke-width="1.5"/>
  
  <!-- 'SK' Text at bottom (Minimal) -->
  <path d="M24 53C24 53 22 53 22 54C22 55 24 55 24 56C24 57 22 57 22 57" stroke="#94a3b8" stroke-width="1.5" stroke-linecap="round"/>
  <path d="M40 53L38 55M38 55L40 57M38 55H42" stroke="#94a3b8" stroke-width="1.5" stroke-linecap="round"/>
</svg>